<svg _ngcontent-ng-c3780175121="" xmlns="http://www.w3.org/2000/svg" height="24" width="24"
  viewBox="0 0 24 24" fill="none" class="ng-tns-c3780175121-4 ng-star-inserted" style="">
  <path _ngcontent-ng-c3780175121=""
    d="M12 21.5C12 20.1833 11.75 18.95 11.25 17.8C10.75 16.6333 10.075 15.625 9.225 14.775C8.375 13.925 7.36667 13.25 6.2 12.75C5.05 12.25 3.81667 12 2.5 12C3.81667 12 5.05 11.75 6.2 11.25C7.36667 10.75 8.375 10.075 9.225 9.225C10.075 8.375 10.75 7.375 11.25 6.225C11.75 5.05833 12 3.81667 12 2.5C12 3.81667 12.25 5.05833 12.75 6.225C13.25 7.375 13.925 8.375 14.775 9.225C15.625 10.075 16.625 10.75 17.775 11.25C18.9417 11.75 20.1833 12 21.5 12C20.1833 12 18.9417 12.25 17.775 12.75C16.625 13.25 15.625 13.925 14.775 14.775C13.925 15.625 13.25 16.6333 12.75 17.8C12.25 18.95 12 20.1833 12 21.5Z"
    class="sparkle ng-tns-c3780175121-4"></path>
</svg>